<svg xmlns="http://www.w3.org/2000/svg" width="1200" height="630" viewBox="0 0 1200 630" role="img" aria-label="AICE Professional 시험 준비 썸네일">
  <defs>
    <linearGradient id="bg" x1="0" y1="0" x2="1" y2="1">
      <stop offset="0%" stop-color="#0f172a"/>
      <stop offset="100%" stop-color="#1e1b4b"/>
    </linearGradient>
    <linearGradient id="accent" x1="0" y1="0" x2="1" y2="1">
      <stop offset="0%" stop-color="#8b5cf6"/>
      <stop offset="100%" stop-color="#38bdf8"/>
    </linearGradient>
  </defs>
  <rect width="1200" height="630" fill="url(#bg)"/>
  <circle cx="980" cy="-40" r="240" fill="url(#accent)" opacity="0.25"/>
  <circle cx="1180" cy="120" r="220" fill="#22d3ee" opacity="0.15"/>
  <rect x="80" y="120" width="640" height="390" rx="22" fill="#0b1220" stroke="#334155" stroke-width="2"/>
  <rect x="110" y="160" width="260" height="14" rx="7" fill="#94a3b8"/>
  <rect x="110" y="190" width="500" height="10" rx="5" fill="#475569"/>
  <rect x="110" y="210" width="420" height="10" rx="5" fill="#475569"/>
  <rect x="110" y="230" width="460" height="10" rx="5" fill="#475569"/>
  <rect x="110" y="270" width="460" height="10" rx="5" fill="#1e293b"/>
  <rect x="110" y="290" width="420" height="10" rx="5" fill="#1e293b"/>
  <rect x="110" y="310" width="480" height="10" rx="5" fill="#1e293b"/>
  <g transform="translate(720 160)">
    <rect width="360" height="250" rx="18" fill="#0b1220" stroke="#334155" stroke-width="2"/>
    <circle cx="60" cy="70" r="26" fill="#8b5cf6"/>
    <circle cx="140" cy="70" r="26" fill="#38bdf8"/>
    <circle cx="220" cy="70" r="26" fill="#22d3ee"/>
    <path d="M60 70 L140 70 L220 70" stroke="#6366f1" stroke-width="4" opacity="0.7"/>
    <rect x="40" y="130" width="280" height="12" rx="6" fill="#475569"/>
    <rect x="40" y="155" width="240" height="12" rx="6" fill="#475569"/>
    <rect x="40" y="180" width="260" height="12" rx="6" fill="#475569"/>
  </g>
  <text x="90" y="560" font-family="'Pretendard','Apple SD Gothic Neo','Noto Sans KR',sans-serif" font-size="44" fill="#e2e8f0" font-weight="700">AICE Professional</text>
  <text x="90" y="605" font-family="'Pretendard','Apple SD Gothic Neo','Noto Sans KR',sans-serif" font-size="26" fill="#94a3b8">딥다이브 합격 가이드 · 7일 플랜 · 예상문제</text>
</svg>
